<svg width="25" height="25" viewBox="0 0 25 25"  xmlns="http://www.w3.org/2000/svg">
<path d="M15.3646 23.4376H9.1146C3.45835 23.4376 1.04169 21.0209 1.04169 15.3647V9.11467C1.04169 3.45842 3.45835 1.04175 9.1146 1.04175H15.3646C21.0209 1.04175 23.4375 3.45842 23.4375 9.11467V15.3647C23.4375 21.0209 21.0209 23.4376 15.3646 23.4376ZM9.1146 2.60425C4.31252 2.60425 2.60419 4.31258 2.60419 9.11467V15.3647C2.60419 20.1667 4.31252 21.8751 9.1146 21.8751H15.3646C20.1667 21.8751 21.875 20.1667 21.875 15.3647V9.11467C21.875 4.31258 20.1667 2.60425 15.3646 2.60425H9.1146Z" />
<path d="M12.5 16.9271C11.3267 16.9243 10.2023 16.457 9.37264 15.6274C8.54299 14.7977 8.07569 13.6733 8.07294 12.5C8.07569 11.3267 8.54299 10.2023 9.37264 9.37262C10.2023 8.54298 11.3267 8.07567 12.5 8.07292C13.6733 8.07567 14.7978 8.54298 15.6274 9.37262C16.457 10.2023 16.9244 11.3267 16.9271 12.5C16.9244 13.6733 16.457 14.7977 15.6274 15.6274C14.7978 16.457 13.6733 16.9243 12.5 16.9271ZM12.5 9.63542C10.9167 9.63542 9.63544 10.9167 9.63544 12.5C9.63544 14.0833 10.9167 15.3646 12.5 15.3646C14.0834 15.3646 15.3646 14.0833 15.3646 12.5C15.3646 10.9167 14.0834 9.63542 12.5 9.63542ZM17.7084 7.8125C17.5729 7.8125 17.4375 7.78125 17.3125 7.72917C17.1875 7.67709 17.0729 7.60417 16.9688 7.51042C16.875 7.40625 16.7917 7.29167 16.7396 7.16667C16.6894 7.04083 16.6646 6.9063 16.6667 6.77084C16.6667 6.63542 16.6875 6.5 16.7396 6.375C16.8021 6.23959 16.875 6.13542 16.9688 6.03125C17.0209 5.98959 17.0729 5.9375 17.125 5.90625C17.1875 5.86459 17.25 5.83334 17.3125 5.8125C17.5024 5.73356 17.7112 5.7122 17.9131 5.7511C18.115 5.79 18.301 5.88743 18.4479 6.03125C18.5417 6.13542 18.6146 6.23959 18.6667 6.375C18.7188 6.5 18.75 6.63542 18.75 6.77084C18.75 6.90625 18.7188 7.04167 18.6667 7.16667C18.6146 7.29167 18.5417 7.40625 18.4479 7.51042C18.3438 7.60417 18.2292 7.67709 18.1042 7.72917C17.9792 7.78125 17.8438 7.8125 17.7084 7.8125Z" />
</svg>
