<svg width="13" height="13" viewBox="0 0 13 13" fill="none" xmlns="http://www.w3.org/2000/svg">
<g clip-path="url(#clip0_24_25)">
<path d="M12.8415 12.0758L9.60771 8.84204C10.4885 7.76481 10.9215 6.39027 10.8172 5.00273C10.713 3.61519 10.0794 2.3208 9.04751 1.3873C8.01565 0.453803 6.66447 -0.0473866 5.27345 -0.0126007C3.88243 0.0221852 2.55799 0.590285 1.57409 1.57419C0.590178 2.5581 0.0220784 3.88254 -0.0127075 5.27356C-0.0474934 6.66458 0.453696 8.01576 1.38719 9.04761C2.32069 10.0795 3.61508 10.7131 5.00262 10.8173C6.39016 10.9216 7.7647 10.4886 8.84193 9.60782L12.0757 12.8416C12.179 12.9339 12.3138 12.9832 12.4523 12.9793C12.5908 12.9754 12.7226 12.9186 12.8205 12.8207C12.9185 12.7227 12.9753 12.5909 12.9792 12.4524C12.9831 12.3139 12.9338 12.1791 12.8415 12.0758ZM5.41724 9.75001C4.55975 9.75041 3.7214 9.49647 3.00826 9.02033C2.29511 8.54418 1.73921 7.86721 1.41087 7.07507C1.08254 6.28293 0.996526 5.4112 1.16372 4.57016C1.33091 3.72913 1.74379 2.95657 2.35013 2.35023C2.95647 1.74389 3.72902 1.33101 4.57006 1.16382C5.41109 0.996633 6.28282 1.08265 7.07496 1.41098C7.86711 1.73931 8.54407 2.29522 9.02022 3.00836C9.49637 3.72151 9.7503 4.55986 9.7499 5.41735C9.74829 6.56595 9.2913 7.66704 8.47911 8.47922C7.66693 9.2914 6.56584 9.74839 5.41724 9.75001Z" fill="#576067"/>
</g>
<defs>
<clipPath id="clip0_24_25">
<rect width="13" height="13" fill="white"/>
</clipPath>
</defs>
</svg>
